<svg width="25" height="28" viewBox="0 0 25 28" fill="none" xmlns="http://www.w3.org/2000/svg">
<path d="M19.5573 0C18.9498 0 18.6866 0.379167 18.468 0.77C18.468 0.77 9.70761 16.198 9.41737 16.7032C9.43499 16.7312 15.1977 27.23 15.1977 27.23C15.3974 27.5893 15.71 28 16.334 28H20.3928C20.6407 28 20.8335 27.909 20.9369 27.7433C21.0414 27.5672 21.0415 27.3397 20.9263 27.118L15.193 16.716C15.1883 16.709 15.1883 16.6973 15.193 16.6903L24.2001 0.882C24.3118 0.659167 24.3141 0.4305 24.2072 0.257833C24.1026 0.0909999 23.9122 0 23.6678 0H19.5573ZM2.47135 5.53C2.2234 5.53 2.01894 5.61633 1.91553 5.782C1.80977 5.95583 1.82387 6.1775 1.93903 6.4015L4.68876 11.1265C4.69346 11.1382 4.69346 11.1452 4.68876 11.151L0.370272 18.7262C0.253937 18.9455 0.260988 19.1707 0.370272 19.3433C0.470156 19.509 0.651121 19.6163 0.899067 19.6163H4.96609C5.57479 19.6163 5.86621 19.2103 6.07656 18.8382L10.4644 11.1277L7.66999 6.28017C7.46787 5.91267 7.16 5.51133 6.53955 5.51133H2.47135V5.53Z" fill="#969696"/>
</svg>
