<svg width="34" height="29" viewBox="0 0 34 29" fill="none" xmlns="http://www.w3.org/2000/svg">
<path d="M30.732 14.7948C30.7335 14.779 30.7411 14.7658 30.7411 14.75C30.7411 13.2914 30.4414 0.5 20.0536 0.5H13.9465C7.15434 0.5 3.259 5.69413 3.259 14.75C3.259 14.7658 3.26663 14.779 3.26816 14.7948C1.82178 15.0345 0.714355 16.2905 0.714355 17.8036V22.8929C0.714355 24.5769 2.08388 25.9464 3.76793 25.9464V28.4911C3.76793 28.7725 3.99542 29 4.27686 29H8.34828C8.62972 29 8.85721 28.7725 8.85721 28.4911V25.9464H25.1429V28.4911C25.1429 28.7725 25.3704 29 25.6519 29H29.7233C30.0047 29 30.2322 28.7725 30.2322 28.4911V25.9464C31.9163 25.9464 33.2858 24.5769 33.2858 22.8929V17.8036C33.2858 16.2905 32.1784 15.0345 30.732 14.7948ZM13.9465 1.51786H20.0536C29.452 1.51786 29.7233 13.3957 29.7233 14.75H28.7054C28.7054 13.5001 28.4484 2.53571 19.5447 2.53571H14.4554C8.54829 2.53571 5.29471 6.87331 5.29471 14.75H4.27686C4.27686 3.23702 10.3351 1.51786 13.9465 1.51786ZM12.9286 10.6786C10.6802 10.6786 8.85721 12.5016 8.85721 14.75H6.31257C6.31257 5.49564 10.7408 3.55357 14.4554 3.55357H19.5447C22.7713 3.55357 25.0966 5.16179 26.4565 8.33445C27.5985 11.0002 27.6876 13.9189 27.6876 14.75H17.0001C17.0001 12.5016 15.1771 10.6786 12.9286 10.6786ZM15.9822 14.75H9.87507C9.87507 13.0639 11.2426 11.6964 12.9286 11.6964C14.6147 11.6964 15.9822 13.0639 15.9822 14.75ZM7.83936 27.9821H4.78578V25.9464H7.83936V27.9821ZM29.2144 27.9821H26.1608V25.9464H29.2144V27.9821ZM32.2679 22.8929C32.2679 24.0156 31.3549 24.9286 30.2322 24.9286H3.76793C2.64523 24.9286 1.73221 24.0156 1.73221 22.8929V17.8036C1.73221 16.6809 2.64523 15.7679 3.76793 15.7679H30.2322C31.3549 15.7679 32.2679 16.6809 32.2679 17.8036V22.8929Z" fill="#7A7A7A"/>
<path d="M6.31257 18.3125C5.18987 18.3125 4.27686 19.2255 4.27686 20.3482C4.27686 21.4709 5.18987 22.3839 6.31257 22.3839C7.43527 22.3839 8.34828 21.4709 8.34828 20.3482C8.34828 19.2255 7.43527 18.3125 6.31257 18.3125ZM6.31257 21.3661C5.75122 21.3661 5.29471 20.9096 5.29471 20.3482C5.29471 19.7869 5.75122 19.3304 6.31257 19.3304C6.87392 19.3304 7.33043 19.7869 7.33043 20.3482C7.33043 20.9096 6.87392 21.3661 6.31257 21.3661Z" fill="#7A7A7A"/>
<path d="M27.6876 18.3125C26.5649 18.3125 25.6519 19.2255 25.6519 20.3482C25.6519 21.4709 26.5649 22.3839 27.6876 22.3839C28.8103 22.3839 29.7233 21.4709 29.7233 20.3482C29.7233 19.2255 28.8103 18.3125 27.6876 18.3125ZM27.6876 21.3661C27.1262 21.3661 26.6697 20.9096 26.6697 20.3482C26.6697 19.7869 27.1262 19.3304 27.6876 19.3304C28.2489 19.3304 28.7054 19.7869 28.7054 20.3482C28.7054 20.9096 28.2489 21.3661 27.6876 21.3661Z" fill="#7A7A7A"/>
<path d="M22.5983 18.8215H11.4019C11.1204 18.8215 10.8929 19.049 10.8929 19.3305C10.8929 19.6119 11.1204 19.8394 11.4019 19.8394H22.5983C22.8797 19.8394 23.1072 19.6119 23.1072 19.3305C23.1072 19.049 22.8797 18.8215 22.5983 18.8215Z" fill="#7A7A7A"/>
<path d="M22.5983 20.8572H11.4019C11.1204 20.8572 10.8929 21.0847 10.8929 21.3661C10.8929 21.6475 11.1204 21.875 11.4019 21.875H22.5983C22.8797 21.875 23.1072 21.6475 23.1072 21.3661C23.1072 21.0847 22.8797 20.8572 22.5983 20.8572Z" fill="#7A7A7A"/>
<path d="M22.4492 6.24788C22.2502 6.04889 21.9286 6.04889 21.7296 6.24788C21.5306 6.44687 21.5306 6.76851 21.7296 6.9675L22.7474 7.98536C22.8467 8.0846 22.9769 8.13447 23.1072 8.13447C23.2375 8.13447 23.3678 8.0846 23.467 7.98536C23.666 7.78637 23.666 7.46472 23.467 7.26573L22.4492 6.24788Z" fill="#7A7A7A"/>
<path d="M19.9045 6.24739C19.7055 6.0484 19.3839 6.0484 19.1849 6.24739C18.9859 6.44638 18.9859 6.76802 19.1849 6.96701L22.7474 10.5295C22.8466 10.6288 22.9769 10.6786 23.1072 10.6786C23.2375 10.6786 23.3678 10.6288 23.467 10.5295C23.666 10.3305 23.666 10.0089 23.467 9.80989L19.9045 6.24739Z" fill="#7A7A7A"/>
</svg>
