<svg width="33" height="28" viewBox="0 0 33 28" fill="none" xmlns="http://www.w3.org/2000/svg">
<path d="M16.0074 27.9925L15.9989 28H15.6944H6.73442H6.73391C3.20363 28 0.636393 25.4737 0.318933 22.5891C0.181663 21.3412 0.464838 20.0263 1.27411 18.8195L8.53099 7.99966L3.16553 0H19.263L14.1147 7.67591C15.4769 7.3434 17.6319 7.08981 18.7485 7.24104L18.3409 8.13065C17.342 8.06711 15.4727 8.30081 14.2956 8.59309L21.1545 18.8195C23.7794 22.7328 20.8774 27.7837 16.0074 27.9925ZM32.2858 15.4576L24.1575 20.1067L17.4539 9.96325L18.3599 8.13515C18.5069 8.14296 18.6561 8.15385 18.8078 8.16864C19.7493 8.26058 20.55 8.4731 21.1218 8.77047C20.9816 9.16321 21.0214 9.60873 21.2719 9.98905C21.7222 10.6726 22.6818 10.8866 23.4153 10.467C24.1489 10.0474 24.3785 9.15315 23.9282 8.46967C23.4779 7.78619 22.5183 7.57213 21.7848 7.99173C21.7683 8.0012 21.7523 8.01114 21.7363 8.02108C20.9268 7.56515 19.8465 7.31062 18.7669 7.22045L19.8378 5.05807L25.5613 5.23154L32.2858 15.4576ZM29.3716 14.4791L29.3783 14.4614L28.927 13.7574L28.9072 13.8723C28.7837 14.5732 28.3395 15.183 27.6875 15.5486C27.2076 15.8158 26.6619 15.9286 26.1062 15.8754C25.5893 15.8261 25.0952 15.6292 24.6999 15.3182L27.6595 13.6707L27.5613 13.0567L24.2728 14.8872C24.2312 14.8318 24.1918 14.775 24.1547 14.7171C24.1176 14.6592 24.0826 14.5999 24.0498 14.5395L27.4916 12.6236L27.3935 12.0096L23.845 13.9849C23.6181 12.9958 24.0787 11.9838 25.0013 11.4477L25.0125 11.4416C25.0191 11.4379 25.0258 11.4341 25.0324 11.4304L25.0413 11.4255C25.6924 11.063 26.479 10.9875 27.1985 11.2164L27.2699 11.2384L27.1705 10.6083L27.142 10.6016C26.3164 10.4095 25.4599 10.5266 24.7288 10.9336L24.7178 10.9397C24.7089 10.9447 24.7023 10.9484 24.6933 10.9533C23.4804 11.648 22.906 13.0187 23.2889 14.2887L22.7401 14.5943L22.8294 15.2133L23.5182 14.8299C23.5509 14.8903 23.5858 14.9495 23.623 15.0075C23.6603 15.0655 23.6996 15.1221 23.7413 15.1776L23.2636 15.4435L23.3617 16.0575L24.1461 15.6209C25.1824 16.5555 26.7631 16.7264 28.003 16.0361C28.6384 15.6823 29.1244 15.1282 29.3716 14.4791Z" fill="black" fill-opacity="0.44"/>
</svg>
