<svg width="39" height="35" viewBox="0 0 39 35" fill="none" xmlns="http://www.w3.org/2000/svg">
<path d="M14.625 32.0833C15.5225 32.0833 16.25 31.4304 16.25 30.625C16.25 29.8195 15.5225 29.1666 14.625 29.1666C13.7275 29.1666 13 29.8195 13 30.625C13 31.4304 13.7275 32.0833 14.625 32.0833Z" stroke="#976E72" stroke-width="2" stroke-linecap="round" stroke-linejoin="round"/>
<path d="M32.5 32.0833C33.3975 32.0833 34.125 31.4304 34.125 30.625C34.125 29.8195 33.3975 29.1666 32.5 29.1666C31.6025 29.1666 30.875 29.8195 30.875 30.625C30.875 31.4304 31.6025 32.0833 32.5 32.0833Z" stroke="#976E72" stroke-width="2" stroke-linecap="round" stroke-linejoin="round"/>
<path d="M1.625 1.45837H8.125L12.48 20.9855C12.6286 21.6569 13.0356 22.26 13.6298 22.6892C14.2239 23.1185 14.9674 23.3465 15.73 23.3334H31.525C32.2876 23.3465 33.0311 23.1185 33.6252 22.6892C34.2194 22.26 34.6264 21.6569 34.775 20.9855L37.375 8.75004H9.75" fill="#976E72"/>
</svg>
